<svg xmlns="http://www.w3.org/2000/svg" viewBox="0 0 1024 1024"><rect width="1024" height="1024" rx="225" fill="#C95E27"/><g transform="translate(194.6,392.6) scale(0.31840)"><g fill="#F3F1EA" transform="scale(1,-1) translate(0,-750)"><path d="M917 155Q917 115 935.5 87.5Q954 60 991 60Q1006 60 1006 45V15Q1006 0 991 0H744Q729 0 729 15V45Q729 60 744 60Q781 60 799.0 87.5Q817 115 817 155V534L581 56Q576 45 564 45H472Q460 45 454 56L219 534V155Q219 115 237.0 87.5Q255 60 292 60Q307 60 307 45V15Q307 0 292 0H45Q30 0 30 15V45Q30 60 45 60Q82 60 100.5 87.5Q119 115 119 155V675Q105 683 89.5 686.5Q74 690 57 690Q42 690 42 705V735Q42 750 57 750H245Q259 750 263 741L518 225L773 741Q777 750 791 750H979Q994 750 994 735V705Q994 690 979 690Q963 690 947.0 686.5Q931 683 917 675Z"/><path transform="translate(1096,0)" d="M780 155Q780 115 794.5 87.5Q809 60 847 60H853Q868 60 868 45V15Q868 0 853 0H546Q531 0 531 15V45Q531 60 546 60H552Q590 60 605.0 87.5Q620 115 620 155V345H278V155Q278 115 293.0 87.5Q308 60 346 60H352Q367 60 367 45V15Q367 0 352 0H45Q30 0 30 15V45Q30 60 45 60H51Q89 60 103.5 87.5Q118 115 118 155V595Q118 635 103.5 662.5Q89 690 51 690H45Q30 690 30 705V735Q30 750 45 750H352Q367 750 367 735V705Q367 690 352 690H346Q308 690 293.0 662.5Q278 635 278 595V424H620V595Q620 635 605.0 662.5Q590 690 552 690H546Q531 690 531 705V735Q531 750 546 750H853Q868 750 868 735V705Q868 690 853 690H847Q809 690 794.5 662.5Q780 635 780 595Z"/></g></g></svg>