<svg xmlns="http://www.w3.org/2000/svg" xmlns:xlink="http://www.w3.org/1999/xlink" width="1000" zoomAndPan="magnify" viewBox="0 0 750 749.999995" height="1000" preserveAspectRatio="xMidYMid meet" version="1.0"><defs><filter x="0%" y="0%" width="100%" height="100%" id="d80213484c"><feColorMatrix values="0 0 0 0 1 0 0 0 0 1 0 0 0 0 1 0 0 0 1 0" color-interpolation-filters="sRGB"></feColorMatrix></filter><mask id="e3f4d320e0"><g filter="url(#d80213484c)"><rect x="-75" width="900" fill="#000000" y="-74.999999" height="899.999994" fill-opacity="0.17"></rect></g></mask><clipPath id="c1adcae2e3"><path d="M 0.441406 0.441406 L 747.320312 0.441406 L 747.320312 712 L 0.441406 712 Z M 0.441406 0.441406 " clip-rule="nonzero"></path></clipPath><clipPath id="3d02259374"><rect x="0" width="748" y="0" height="713"></rect></clipPath></defs><g mask="url(#e3f4d320e0)"><g transform="matrix(1, 0, 0, 1, 1, 1)"><g clip-path="url(#3d02259374)"><path fill="#f6f4f0" d="M 387.433594 183.191406 C 387.101562 182.988281 387.164062 183.035156 387.433594 183.191406 Z M 387.433594 183.191406 " fill-opacity="1" fill-rule="nonzero"></path><g clip-path="url(#c1adcae2e3)"><path fill="#f6f4f0" d="M 746.195312 535.632812 C 739.828125 483.6875 703.914062 440.734375 661.191406 412.902344 C 642.828125 400.941406 623.339844 390.804688 605.070312 378.695312 C 600.597656 375.730469 596.328125 372.527344 591.972656 369.402344 C 591.546875 369.0625 591.121094 368.722656 590.699219 368.378906 C 589.707031 367.574219 588.726562 366.757812 587.753906 365.933594 C 585.710938 364.191406 583.710938 362.398438 581.765625 360.546875 C 578.21875 357.167969 574.941406 353.578125 571.8125 349.820312 C 571.5625 349.453125 570.945312 348.707031 570.820312 348.535156 C 570.09375 347.535156 569.390625 346.527344 568.710938 345.5 C 567.253906 343.316406 565.894531 341.070312 564.644531 338.765625 C 564.050781 337.675781 563.484375 336.570312 562.941406 335.453125 C 562.667969 334.890625 562.402344 334.328125 562.140625 333.761719 C 562.007812 333.476562 561.910156 333.074219 561.855469 332.792969 C 561.875 332.929688 561.902344 333.117188 561.933594 333.359375 C 561.949219 333.46875 561.960938 333.566406 561.96875 333.652344 C 561.921875 333.402344 561.851562 333.125 561.777344 332.921875 C 561.542969 332.332031 561.320312 331.738281 561.105469 331.140625 C 560.613281 329.785156 560.152344 328.417969 559.734375 327.039062 C 558.960938 324.496094 558.3125 321.910156 557.773438 319.308594 C 557.503906 317.992188 557.253906 316.675781 557.035156 315.355469 C 556.929688 314.710938 556.835938 314.0625 556.730469 313.417969 C 556.726562 313.359375 556.71875 313.300781 556.710938 313.230469 C 555.554688 301.910156 555.425781 290.578125 555.21875 279.210938 C 554.769531 254.675781 552.597656 229.925781 536.445312 210.25 C 519.761719 189.925781 492.246094 185.050781 467.347656 185.707031 C 455.8125 186.011719 444.382812 187.511719 432.886719 188.386719 C 427.710938 188.777344 422.519531 188.949219 417.332031 188.839844 C 414.789062 188.785156 412.246094 188.664062 409.707031 188.46875 C 408.441406 188.367188 407.179688 188.25 405.917969 188.113281 C 405.289062 188.046875 403.28125 187.578125 405.515625 188.09375 C 407.941406 188.648438 405.21875 188.042969 404.660156 187.957031 C 399.503906 187.140625 394.398438 185.949219 389.472656 184.210938 C 388.796875 183.972656 387.863281 183.449219 387.4375 183.195312 C 387.671875 183.339844 388.113281 183.613281 388.824219 184.066406 C 387.867188 183.460938 386.660156 183.097656 385.636719 182.585938 C 383.4375 181.480469 381.375 180.199219 379.320312 178.851562 C 379.191406 178.769531 379.085938 178.699219 378.984375 178.636719 C 378.957031 178.609375 378.929688 178.589844 378.902344 178.5625 C 378.046875 177.8125 377.195312 177.074219 376.386719 176.273438 C 375.574219 175.472656 374.824219 174.628906 374.058594 173.789062 C 374.042969 173.769531 374.023438 173.746094 374.003906 173.726562 C 373.796875 173.4375 373.578125 173.136719 373.480469 172.996094 C 372.296875 171.242188 371.25 169.386719 370.359375 167.46875 C 370.96875 168.746094 369.660156 165.25 369.457031 164.519531 C 369 162.886719 368.695312 161.242188 368.378906 159.582031 C 368.378906 159.550781 368.378906 159.515625 368.378906 159.480469 C 368.363281 158.671875 368.25 157.855469 368.203125 157.046875 C 368.117188 155.414062 368.089844 153.777344 368.109375 152.140625 C 368.152344 148.601562 368.410156 145.070312 368.757812 141.550781 C 369.46875 134.40625 370.5625 127.300781 371.136719 120.144531 C 372.140625 107.582031 370.839844 94.722656 367.425781 82.585938 C 360.390625 57.578125 344.867188 35.925781 324.066406 20.546875 C 304.042969 5.746094 277.984375 -1.011719 253.253906 0.882812 C 227.921875 2.824219 204.09375 12.433594 185.085938 29.394531 C 179.347656 34.515625 179.480469 44.976562 185.085938 50.125 C 191.210938 55.75 199.699219 55.589844 205.816406 50.125 C 206.859375 49.195312 207.914062 48.277344 208.992188 47.390625 C 209.210938 47.210938 209.433594 47.019531 209.664062 46.828125 C 209.792969 46.738281 209.957031 46.628906 210.160156 46.484375 C 212.597656 44.796875 215.027344 43.125 217.582031 41.617188 C 219.828125 40.289062 222.132812 39.054688 224.480469 37.914062 C 225.28125 37.527344 226.125 37.050781 226.976562 36.667969 C 227.203125 36.609375 227.46875 36.53125 227.675781 36.453125 C 228.652344 36.082031 229.628906 35.699219 230.613281 35.34375 C 235.867188 33.457031 241.277344 32.015625 246.769531 31.015625 C 247.089844 30.957031 247.683594 30.824219 248.253906 30.691406 C 249.523438 30.421875 250.925781 30.398438 252.210938 30.285156 C 254.992188 30.042969 257.785156 29.910156 260.574219 29.898438 C 263.363281 29.886719 266.15625 29.988281 268.933594 30.210938 C 270.152344 30.308594 271.664062 30.691406 272.902344 30.636719 C 273.5625 30.746094 274.21875 30.851562 274.875 30.972656 C 280.527344 32.007812 286.085938 33.550781 291.449219 35.605469 C 291.898438 35.777344 292.585938 36.160156 293.105469 36.316406 C 294.09375 36.777344 295.085938 37.226562 296.0625 37.71875 C 298.683594 39.039062 301.242188 40.488281 303.722656 42.058594 C 304.886719 42.796875 306.035156 43.558594 307.167969 44.347656 C 307.503906 44.582031 308.316406 45.121094 308.921875 45.523438 C 310.957031 46.980469 312.839844 48.816406 314.65625 50.507812 C 316.675781 52.390625 318.617188 54.359375 320.472656 56.40625 C 321.402344 57.429688 322.308594 58.472656 323.195312 59.53125 C 323.609375 60.03125 324.019531 60.539062 324.429688 61.039062 C 324.429688 61.042969 324.433594 61.042969 324.433594 61.042969 C 327.722656 65.742188 330.839844 70.457031 333.449219 75.574219 C 334.078125 76.804688 334.683594 78.050781 335.257812 79.308594 C 335.46875 79.769531 335.703125 80.566406 335.984375 81.03125 C 336.90625 83.464844 337.808594 85.894531 338.570312 88.390625 C 339.375 91.03125 340.066406 93.703125 340.644531 96.402344 C 340.933594 97.75 341.191406 99.105469 341.421875 100.46875 C 341.453125 100.648438 341.476562 100.847656 341.5 101.050781 C 341.542969 101.21875 341.605469 101.582031 341.671875 102.207031 C 341.671875 102.234375 341.675781 102.257812 341.679688 102.285156 C 341.699219 102.363281 341.71875 102.441406 341.742188 102.511719 C 341.71875 102.445312 341.699219 102.378906 341.679688 102.316406 C 343.019531 115.082031 340.898438 127.617188 339.566406 140.289062 C 338.003906 155.15625 338.78125 170.074219 345.707031 183.617188 C 356.4375 204.585938 379.515625 213.917969 401.621094 216.886719 C 412.3125 218.324219 423.0625 218.507812 433.8125 217.628906 C 445.175781 216.707031 456.480469 215.289062 467.890625 215.011719 C 473.6875 214.875 479.5 215 485.273438 215.601562 C 485.753906 215.652344 486.269531 215.753906 486.765625 215.804688 C 487.835938 215.996094 488.910156 216.171875 489.972656 216.390625 C 492.753906 216.960938 495.511719 217.675781 498.203125 218.578125 C 499.160156 218.898438 501.21875 219.246094 501.917969 219.953125 C 501.804688 219.835938 498.703125 218.417969 501.128906 219.667969 C 501.710938 219.96875 502.3125 220.242188 502.894531 220.542969 C 504.066406 221.144531 505.21875 221.796875 506.339844 222.488281 C 506.902344 222.835938 507.457031 223.195312 508.007812 223.5625 C 508.089844 223.617188 508.261719 223.730469 508.464844 223.863281 C 507.941406 223.570312 510.203125 225.253906 510.597656 225.609375 C 511.59375 226.511719 512.554688 227.453125 513.472656 228.429688 C 513.667969 228.632812 514.398438 229.320312 515.027344 229.984375 C 515.035156 230.03125 515.152344 230.226562 515.449219 230.65625 C 515.890625 231.304688 516.34375 231.941406 516.769531 232.601562 C 518.121094 234.699219 519.269531 236.886719 520.355469 239.128906 C 520.40625 239.234375 520.449219 239.324219 520.492188 239.410156 C 520.539062 239.550781 520.59375 239.71875 520.660156 239.921875 C 521.113281 241.25 521.59375 242.566406 522 243.914062 C 522.730469 246.332031 523.328125 248.796875 523.820312 251.273438 C 524.042969 252.375 524.238281 253.484375 524.421875 254.589844 C 524.496094 255.039062 524.5625 255.492188 524.628906 255.945312 C 524.632812 255.964844 524.636719 255.984375 524.636719 256.007812 C 525.828125 267.164062 525.855469 278.363281 526.066406 289.566406 C 526.511719 313.132812 528.902344 336.605469 541.40625 357.179688 C 553.152344 376.5 570.863281 391.054688 589.453125 403.464844 C 607.417969 415.457031 626.59375 425.484375 644.757812 437.160156 C 649.503906 440.210938 654.117188 443.429688 658.644531 446.796875 C 659.070312 447.109375 659.328125 447.296875 659.46875 447.390625 C 659.660156 447.5625 659.839844 447.726562 659.996094 447.851562 C 661.136719 448.761719 662.269531 449.683594 663.390625 450.617188 C 665.78125 452.609375 668.125 454.65625 670.421875 456.753906 C 674.882812 460.832031 679.160156 465.109375 683.226562 469.585938 C 685.070312 471.613281 686.867188 473.683594 688.617188 475.792969 C 689.53125 476.894531 690.414062 478.019531 691.316406 479.128906 C 691.78125 479.75 692.253906 480.367188 692.710938 480.992188 C 696.128906 485.644531 699.3125 490.46875 702.210938 495.457031 C 703.648438 497.929688 705.011719 500.441406 706.300781 502.992188 C 706.941406 504.257812 707.566406 505.539062 708.167969 506.824219 C 708.46875 507.464844 708.765625 508.109375 709.050781 508.757812 C 709.128906 508.925781 709.367188 509.484375 709.570312 509.957031 C 709.898438 510.796875 710.507812 512.324219 710.613281 512.597656 C 711.109375 513.914062 711.585938 515.238281 712.042969 516.570312 C 713.007812 519.390625 713.867188 522.246094 714.621094 525.128906 C 715.28125 527.664062 715.855469 530.226562 716.34375 532.800781 C 716.582031 534.070312 716.773438 535.351562 716.988281 536.625 C 717.066406 537.339844 717.152344 538.050781 717.21875 538.765625 C 717.769531 544.554688 717.847656 550.390625 717.425781 556.195312 C 717.347656 557.242188 717.238281 558.285156 717.140625 559.332031 C 717.070312 559.742188 717.042969 560.203125 716.980469 560.582031 C 716.5625 563.03125 716.015625 565.457031 715.355469 567.847656 C 714.734375 570.101562 714.003906 572.324219 713.179688 574.511719 C 713.050781 574.855469 712.910156 575.195312 712.777344 575.535156 C 712.28125 576.566406 711.835938 577.625 711.324219 578.652344 C 709.226562 582.867188 706.78125 586.90625 704.042969 590.734375 C 703.886719 590.953125 703.726562 591.171875 703.566406 591.386719 C 702.800781 591.980469 702.03125 593.335938 701.421875 594.050781 C 699.792969 595.960938 698.085938 597.8125 696.3125 599.589844 C 694.746094 601.160156 693.132812 602.675781 691.464844 604.136719 C 690.578125 604.910156 689.675781 605.671875 688.761719 606.417969 C 688.53125 606.609375 688.210938 606.820312 687.914062 607.046875 C 687.816406 607.136719 687.714844 607.21875 687.609375 607.300781 C 687.527344 607.375 687.449219 607.445312 687.382812 607.519531 C 687.433594 607.464844 687.476562 607.417969 687.523438 607.363281 C 683.753906 610.105469 679.785156 612.578125 675.652344 614.734375 C 674.628906 615.269531 673.597656 615.785156 672.554688 616.28125 C 671.417969 616.816406 668.03125 617.84375 672.121094 616.550781 C 669.960938 617.234375 667.882812 618.214844 665.714844 618.914062 C 663.574219 619.605469 661.40625 620.210938 659.214844 620.714844 C 658.125 620.96875 657.035156 621.195312 655.9375 621.398438 C 655.523438 621.476562 655.101562 621.542969 654.6875 621.613281 C 650.371094 621.976562 646.117188 622.183594 641.785156 621.800781 C 641.476562 621.773438 641.128906 621.710938 640.792969 621.667969 C 640.132812 621.558594 639.472656 621.453125 638.8125 621.316406 C 636.535156 620.84375 634.285156 620.234375 632.082031 619.488281 C 631.214844 619.195312 630.242188 618.675781 629.328125 618.421875 C 629.101562 618.316406 628.878906 618.214844 628.65625 618.101562 C 626.613281 617.089844 624.628906 615.960938 622.722656 614.714844 C 622.003906 614.246094 621.304688 613.75 620.605469 613.253906 C 620.339844 612.957031 619.5625 612.453125 619.3125 612.242188 C 617.378906 610.613281 615.53125 608.882812 613.753906 607.078125 C 612.070312 605.367188 610.453125 603.585938 608.894531 601.765625 C 608.203125 600.960938 607.527344 600.148438 606.859375 599.324219 C 606.476562 598.855469 606.101562 598.378906 605.71875 597.90625 C 605.707031 597.894531 605.695312 597.878906 605.683594 597.867188 C 599.765625 589.917969 594.371094 581.613281 588.632812 573.539062 C 575.917969 555.65625 560.277344 538.054688 537.695312 533.542969 C 507.804688 527.574219 480.238281 542.886719 456.40625 559.203125 C 432.597656 575.5 409.679688 593.175781 387.863281 612.054688 C 377.398438 621.105469 367.230469 630.484375 357.261719 640.078125 C 348.484375 648.527344 339.695312 657 330.140625 664.574219 C 329.964844 664.714844 329.441406 665.113281 329.105469 665.367188 C 328.925781 665.5 328.765625 665.617188 328.679688 665.679688 C 327.496094 666.558594 326.292969 667.421875 325.082031 668.265625 C 322.53125 670.035156 319.921875 671.722656 317.246094 673.292969 C 314.761719 674.753906 312.21875 676.109375 309.617188 677.339844 C 309.378906 677.453125 308.121094 677.953125 307.765625 678.160156 C 306.589844 678.609375 305.417969 679.058594 304.226562 679.457031 C 301.535156 680.351562 298.792969 681.097656 296.015625 681.664062 C 295.316406 681.804688 294.613281 681.921875 293.914062 682.054688 C 293.601562 682.113281 293.320312 682.207031 293.128906 682.296875 C 291.992188 682.398438 290.710938 682.332031 289.765625 682.367188 C 286.757812 682.488281 283.78125 682.339844 280.785156 682.082031 C 280.425781 682.050781 280.152344 682.03125 279.945312 682.015625 C 279.472656 681.910156 278.984375 681.773438 278.675781 681.714844 C 276.683594 681.332031 274.710938 680.863281 272.757812 680.328125 C 269.804688 679.519531 266.902344 678.542969 264.042969 677.449219 C 263.351562 677.1875 262.667969 676.90625 261.980469 676.632812 C 261.9375 676.609375 261.894531 676.589844 261.84375 676.566406 C 260.171875 675.753906 258.457031 675.019531 256.78125 674.199219 C 250.800781 671.261719 245.011719 667.953125 239.289062 664.550781 C 226.296875 656.828125 213.414062 648.929688 200.480469 641.113281 C 174.566406 625.441406 148.648438 609.777344 122.734375 594.109375 C 110.5 586.710938 98.179688 579.433594 86.058594 571.851562 C 80.558594 568.40625 75.121094 564.855469 69.863281 561.046875 C 68.804688 560.277344 67.761719 559.484375 66.707031 558.707031 C 66.113281 558.222656 65.511719 557.753906 64.917969 557.269531 C 62.355469 555.179688 59.859375 553.011719 57.453125 550.742188 C 55.195312 548.613281 53.019531 546.394531 50.945312 544.089844 C 50.035156 543.082031 49.148438 542.050781 48.28125 541.003906 C 48.203125 540.910156 48.027344 540.695312 47.839844 540.464844 C 47.496094 540.003906 46.777344 539.070312 46.640625 538.886719 C 43.671875 534.753906 41.019531 530.398438 38.734375 525.851562 C 38.195312 524.78125 37.675781 523.699219 37.179688 522.609375 C 37.136719 522.515625 37.097656 522.421875 37.054688 522.328125 C 36.84375 520.042969 35.070312 517.15625 34.375 514.941406 C 32.96875 510.46875 31.878906 505.902344 31.082031 501.285156 C 30.902344 500.25 30.839844 499.132812 30.605469 498.105469 C 30.574219 497.839844 30.546875 497.578125 30.515625 497.316406 C 30.265625 494.957031 30.089844 492.589844 29.96875 490.222656 C 29.71875 485.257812 29.734375 480.285156 29.957031 475.316406 C 30.183594 470.226562 30.628906 465.144531 31.234375 460.082031 C 31.296875 459.535156 31.511719 458.628906 31.664062 458.023438 C 31.582031 458.320312 31.46875 458.738281 31.308594 459.304688 C 31.597656 458.265625 31.625 457.09375 31.785156 456.019531 C 32.1875 453.339844 32.628906 450.664062 33.097656 447.992188 C 36.832031 426.832031 42.386719 406.046875 47.261719 385.136719 C 52.328125 363.40625 56.78125 341.316406 57.933594 318.980469 C 58.53125 307.5 57.925781 296.140625 56.324219 284.761719 C 54.75 273.628906 51.460938 263.242188 47.773438 252.652344 C 46.675781 249.503906 45.613281 246.339844 44.753906 243.117188 C 44.332031 241.527344 44.039062 239.910156 43.640625 238.320312 C 43.597656 238.144531 43.523438 237.828125 43.457031 237.542969 C 43.398438 236.882812 43.382812 236.214844 43.351562 235.570312 C 43.273438 233.984375 43.414062 232.4375 43.421875 230.859375 C 43.585938 230.207031 43.6875 229.53125 43.859375 228.875 C 44.183594 227.605469 44.597656 226.375 45.023438 225.136719 C 45.085938 224.953125 45.140625 224.796875 45.1875 224.660156 C 45.617188 223.824219 46.300781 222.683594 46.378906 222.539062 C 47.113281 221.21875 47.914062 219.933594 48.753906 218.679688 C 49.179688 218.046875 49.625 217.429688 50.0625 216.804688 C 50.085938 216.773438 50.128906 216.714844 50.183594 216.644531 C 50.457031 216.308594 50.828125 215.851562 50.957031 215.695312 C 51.453125 215.101562 51.953125 214.519531 52.460938 213.941406 C 53.605469 212.636719 54.78125 211.363281 55.984375 210.113281 C 60.507812 205.40625 65.296875 200.945312 70.15625 196.589844 C 74.941406 192.304688 79.851562 188.15625 84.875 184.152344 C 85.503906 183.652344 86.136719 183.152344 86.765625 182.65625 C 86.921875 182.53125 87.429688 182.140625 87.796875 181.859375 C 88.113281 181.617188 88.445312 181.363281 88.570312 181.273438 C 89.210938 180.789062 89.855469 180.304688 90.496094 179.828125 C 93.234375 177.789062 96 175.789062 98.796875 173.835938 C 109.492188 166.355469 120.625 159.503906 132.117188 153.320312 C 137.953125 150.183594 143.878906 147.214844 149.890625 144.429688 C 152.621094 143.164062 155.371094 141.933594 158.136719 140.742188 C 158.332031 140.660156 158.949219 140.398438 159.375 140.222656 C 159.714844 140.082031 160.054688 139.941406 160.1875 139.886719 C 161.660156 139.28125 163.140625 138.6875 164.625 138.125 C 169.699219 136.199219 174.882812 134.546875 180.160156 133.277344 C 182.824219 132.636719 185.503906 132.144531 188.191406 131.65625 C 188.4375 131.613281 188.632812 131.574219 188.785156 131.546875 C 189.03125 131.535156 189.230469 131.527344 189.320312 131.519531 C 190.8125 131.363281 192.3125 131.253906 193.8125 131.1875 C 196.425781 131.070312 199.042969 131.09375 201.652344 131.285156 C 201.90625 131.308594 202.160156 131.328125 202.414062 131.351562 C 203.777344 131.726562 205.289062 131.832031 206.660156 132.175781 C 207.859375 132.484375 209.050781 132.835938 210.222656 133.246094 C 210.421875 133.316406 210.625 133.398438 210.828125 133.480469 C 211.8125 134.035156 212.855469 134.484375 213.828125 135.066406 C 214.328125 135.363281 214.8125 135.6875 215.300781 135.996094 C 216.019531 136.800781 217.15625 137.527344 217.890625 138.261719 C 218.175781 138.550781 218.882812 139.222656 219.40625 139.699219 C 220.164062 140.613281 220.769531 141.84375 221.335938 142.816406 C 221.691406 143.429688 222.03125 144.058594 222.355469 144.6875 C 222.417969 144.8125 222.589844 145.167969 222.769531 145.535156 C 222.96875 146.09375 223.589844 147.65625 223.742188 148.105469 C 224.195312 149.476562 224.589844 150.867188 224.945312 152.269531 C 225.304688 153.6875 225.617188 155.117188 225.894531 156.550781 C 226.03125 157.273438 226.160156 158 226.285156 158.726562 C 226.308594 158.867188 226.371094 159.257812 226.4375 159.671875 C 226.496094 160.082031 226.578125 160.664062 226.605469 160.890625 C 226.6875 161.632812 226.769531 162.371094 226.84375 163.113281 C 226.996094 164.59375 227.128906 166.078125 227.253906 167.5625 C 227.515625 170.710938 227.730469 173.867188 227.976562 177.019531 C 228.550781 184.238281 229.394531 191.421875 230.375 198.597656 C 232.113281 211.320312 234.664062 223.949219 238.488281 236.214844 C 246.394531 261.554688 259.5 286.097656 279.542969 303.90625 C 298.964844 321.164062 323.585938 332.804688 349.816406 333.617188 C 363.167969 334.03125 376.21875 330.964844 388.578125 326.125 C 400.492188 321.460938 411.992188 315.972656 424.5625 313.308594 C 424.484375 313.292969 424.410156 313.277344 424.335938 313.253906 C 424.425781 313.277344 424.566406 313.285156 424.726562 313.273438 C 425 313.214844 425.269531 313.160156 425.542969 313.105469 C 426.015625 313.011719 426.265625 313.019531 426.351562 313.074219 C 427.503906 312.992188 428.660156 312.945312 429.816406 312.941406 C 430.890625 312.9375 431.96875 312.964844 433.042969 313.027344 C 433.46875 313.050781 433.894531 313.085938 434.316406 313.121094 C 435.078125 313.546875 437.003906 313.554688 437.785156 313.738281 C 438.960938 314.015625 440.128906 314.335938 441.277344 314.707031 C 441.574219 314.800781 441.867188 314.90625 442.15625 315.011719 C 442.085938 314.949219 442.019531 314.886719 441.949219 314.8125 C 442.019531 314.886719 442.105469 314.957031 442.195312 315.023438 C 442.453125 315.113281 442.714844 315.207031 442.976562 315.292969 C 443.738281 315.535156 443.835938 315.761719 443.566406 315.757812 C 444.246094 316.050781 444.964844 316.316406 445.453125 316.601562 C 445.816406 316.8125 447.578125 318.085938 447.785156 318.15625 C 448.007812 318.355469 448.199219 318.527344 448.300781 318.621094 C 448.59375 318.898438 448.890625 319.273438 449.191406 319.652344 C 449.164062 319.4375 449.425781 319.511719 449.785156 320.144531 C 449.890625 320.328125 449.996094 320.511719 450.105469 320.703125 C 450.261719 320.855469 450.421875 320.984375 450.585938 321.085938 C 450.425781 320.988281 450.289062 320.890625 450.160156 320.796875 C 450.457031 321.316406 450.765625 321.835938 451.070312 322.328125 C 451.074219 322.335938 451.078125 322.339844 451.082031 322.34375 C 451.085938 322.363281 451.089844 322.382812 451.097656 322.40625 C 451.269531 323.03125 451.472656 323.648438 451.632812 324.28125 C 451.679688 324.484375 451.773438 325.0625 451.847656 325.515625 C 451.867188 325.917969 451.890625 326.34375 451.894531 326.507812 C 451.914062 327.332031 451.90625 328.152344 451.871094 328.976562 C 451.835938 329.804688 451.722656 330.632812 451.695312 331.457031 C 451.691406 331.5 451.691406 331.535156 451.691406 331.570312 C 451.671875 331.679688 451.648438 331.792969 451.625 331.917969 C 450.265625 339.285156 448.492188 346.558594 447.785156 354.039062 C 447.183594 360.371094 447.863281 366.789062 449.050781 373.015625 C 451.40625 385.378906 457.539062 396.550781 465.253906 406.339844 C 476.8125 420.992188 494.234375 431.597656 512.785156 434.5625 C 512.617188 435.199219 512.433594 435.828125 512.230469 436.457031 C 512.132812 436.75 512.027344 437.050781 511.929688 437.347656 C 511.835938 437.59375 511.765625 437.785156 511.710938 437.933594 C 511.128906 439.058594 510.34375 440.476562 510.179688 440.757812 C 509.691406 441.601562 509.167969 442.429688 508.625 443.238281 C 508.464844 443.472656 506.792969 446.214844 508.035156 444.15625 C 509.246094 442.148438 507.539062 444.738281 507.304688 445.011719 C 506.648438 445.78125 505.96875 446.53125 505.269531 447.261719 C 503.851562 448.75 502.355469 450.164062 500.796875 451.5 C 500.664062 451.617188 500.457031 451.820312 500.222656 452.039062 C 499.757812 452.386719 499.296875 452.726562 498.824219 453.0625 C 497.390625 454.078125 495.921875 455.039062 494.417969 455.949219 C 492.914062 456.859375 491.371094 457.710938 489.800781 458.511719 C 488.863281 458.988281 487.902344 459.421875 486.953125 459.882812 C 486.902344 459.910156 486.855469 459.929688 486.808594 459.953125 C 486.625 460.019531 486.398438 460.105469 486.097656 460.21875 C 482.636719 461.527344 479.09375 462.527344 475.472656 463.273438 C 473.378906 463.703125 471.273438 464.039062 469.164062 464.386719 C 468.988281 464.417969 468.832031 464.441406 468.691406 464.464844 C 468.5 464.484375 468.265625 464.507812 467.972656 464.539062 C 466.695312 464.671875 465.421875 464.820312 464.144531 464.941406 C 444.535156 466.808594 424.683594 466.101562 405.351562 470.441406 C 389.234375 474.058594 374.488281 481.953125 361.347656 491.800781 C 348.363281 501.53125 336.480469 512.566406 323.816406 522.691406 C 323.136719 523.234375 322.472656 523.847656 321.746094 524.328125 C 321.875 524.246094 321.988281 524.167969 322.097656 524.097656 C 321.796875 524.300781 321.519531 524.492188 321.378906 524.601562 C 319.980469 525.652344 318.566406 526.683594 317.140625 527.699219 C 314.011719 529.910156 310.804688 532.019531 307.503906 533.96875 C 304.203125 535.910156 300.808594 537.605469 297.355469 539.25 C 297.113281 539.367188 296.929688 539.476562 296.808594 539.570312 C 296.265625 539.746094 295.703125 539.890625 295.328125 540.03125 C 293.464844 540.714844 291.578125 541.339844 289.675781 541.898438 C 286.503906 542.828125 283.277344 543.582031 280.023438 544.167969 C 279.886719 544.191406 279.222656 544.347656 278.5625 544.480469 C 278.363281 544.484375 278.039062 544.503906 277.539062 544.558594 C 275.5625 544.773438 273.585938 544.925781 271.601562 545.019531 C 268.125 545.183594 264.640625 545.164062 261.164062 544.957031 C 259.507812 544.863281 257.855469 544.722656 256.207031 544.546875 C 256.128906 544.539062 256.042969 544.527344 255.953125 544.511719 C 256.019531 544.527344 256.085938 544.546875 256.15625 544.5625 C 256.066406 544.539062 255.972656 544.519531 255.878906 544.5 C 255.734375 544.472656 255.578125 544.441406 255.417969 544.40625 C 254.6875 544.277344 253.914062 544.207031 253.207031 544.082031 C 249.613281 543.445312 246.050781 542.609375 242.542969 541.582031 C 239.761719 540.769531 236.164062 540.015625 233.410156 538.625 C 233.023438 538.367188 232.449219 538.007812 232.082031 537.835938 C 231.476562 537.558594 230.882812 537.273438 230.285156 536.984375 C 228.796875 536.261719 227.324219 535.5 225.875 534.699219 C 222.398438 532.78125 219.042969 530.652344 215.835938 528.316406 C 215.308594 527.933594 214.789062 527.480469 214.246094 527.132812 C 215.117188 527.691406 215.554688 527.976562 215.726562 528.089844 C 215.433594 527.894531 214.480469 527.261719 214.109375 526.953125 C 212.835938 525.894531 211.59375 524.800781 210.386719 523.671875 C 207.675781 521.144531 205.125 518.441406 202.753906 515.59375 C 202.632812 515.441406 202.238281 514.988281 201.875 514.570312 C 201.234375 513.78125 200.667969 512.894531 200.089844 512.070312 C 198.972656 510.488281 197.902344 508.871094 196.871094 507.230469 C 194.605469 503.617188 192.539062 499.878906 190.648438 496.058594 C 189.785156 494.3125 188.957031 492.550781 188.160156 490.777344 C 188.066406 490.5625 187.738281 489.851562 187.484375 489.296875 C 187.203125 488.621094 186.945312 487.9375 186.675781 487.261719 C 185.007812 483.0625 183.484375 478.804688 182.0625 474.515625 C 179.402344 466.476562 177.089844 458.328125 174.835938 450.167969 C 169.523438 430.921875 164.25 411.667969 158.953125 392.421875 C 154.164062 375.007812 148.675781 357.636719 144.882812 339.972656 C 144.113281 336.398438 143.484375 332.804688 142.925781 329.191406 C 142.855469 328.742188 142.8125 328.457031 142.785156 328.296875 C 142.753906 327.761719 142.734375 327.289062 142.722656 327.164062 C 142.53125 325.203125 142.386719 323.238281 142.296875 321.269531 C 142.148438 317.90625 142.167969 314.535156 142.417969 311.175781 C 142.46875 310.46875 142.542969 309.765625 142.609375 309.058594 C 142.96875 307.273438 143.289062 305.492188 143.769531 303.730469 C 144.144531 302.34375 144.625 301.003906 145.082031 299.644531 C 145.332031 299.160156 145.558594 298.664062 145.816406 298.179688 C 146.503906 296.882812 147.320312 295.6875 148.082031 294.4375 C 148.085938 294.433594 148.085938 294.429688 148.089844 294.421875 C 148.734375 293.710938 149.359375 292.992188 150.039062 292.3125 C 150.578125 291.78125 151.15625 291.296875 151.699219 290.765625 C 151.742188 290.722656 151.78125 290.6875 151.816406 290.648438 C 153.0625 289.839844 154.285156 289.019531 155.605469 288.328125 C 155.734375 288.261719 156.214844 288.046875 156.625 287.863281 C 156.828125 287.789062 157 287.726562 157.070312 287.703125 C 158.441406 287.25 160.695312 287.207031 162.015625 286.542969 C 162.542969 286.511719 163.070312 286.488281 163.597656 286.480469 C 165.035156 286.453125 167.242188 287.042969 168.683594 286.792969 C 169.261719 286.90625 169.839844 287.019531 170.417969 287.152344 C 172.21875 287.582031 174 288.113281 175.746094 288.730469 C 176.042969 288.839844 176.335938 288.945312 176.628906 289.050781 C 176.773438 289.109375 176.90625 289.160156 177.015625 289.203125 C 177.171875 289.277344 177.328125 289.34375 177.484375 289.417969 C 178.933594 290.101562 180.351562 290.839844 181.742188 291.632812 C 183.289062 292.511719 184.796875 293.460938 186.265625 294.464844 C 186.859375 294.867188 187.4375 295.289062 188.019531 295.703125 C 188.394531 296.011719 188.769531 296.3125 189.136719 296.628906 C 191.625 298.746094 193.972656 301.042969 196.140625 303.488281 C 196.789062 304.21875 197.402344 304.972656 198.035156 305.71875 C 199.308594 307.214844 198.265625 305.359375 197.601562 305.078125 C 198.621094 305.476562 200.15625 308.847656 200.753906 309.832031 C 202.660156 312.957031 204.796875 316.5 206.125 320.007812 C 206.21875 320.300781 206.355469 320.71875 206.449219 320.953125 C 206.882812 322.070312 207.332031 323.179688 207.75 324.300781 C 208.589844 326.546875 209.375 328.816406 210.121094 331.097656 C 215.503906 347.574219 218.679688 364.699219 224.515625 381.039062 C 230.484375 397.765625 239.453125 413.59375 252.992188 425.386719 C 265.859375 436.59375 282.632812 444.882812 300.128906 442.960938 C 309.816406 441.894531 318.367188 438.535156 327.0625 434.234375 C 330.277344 432.644531 333.441406 430.960938 336.644531 429.347656 C 338.519531 428.402344 340.421875 427.523438 342.316406 426.617188 C 342.628906 426.46875 342.84375 426.324219 342.972656 426.210938 C 343.785156 425.929688 344.707031 425.726562 345.324219 425.527344 C 346.707031 425.074219 348.117188 424.753906 349.527344 424.402344 C 350.128906 424.398438 350.769531 424.289062 351.359375 424.296875 C 351.460938 424.300781 351.566406 424.300781 351.667969 424.308594 C 352.109375 424.398438 352.605469 424.464844 352.6875 424.488281 C 352.71875 424.5 352.742188 424.507812 352.777344 424.515625 C 352.671875 424.457031 352.601562 424.402344 352.585938 424.347656 C 352.617188 424.351562 352.648438 424.355469 352.679688 424.355469 C 352.773438 424.410156 352.933594 424.5 353.128906 424.613281 C 354.707031 425.066406 354.042969 424.96875 353.355469 424.746094 C 354.054688 425.15625 354.988281 425.714844 355.082031 425.773438 C 361.53125 429.953125 371.558594 427.296875 375.140625 420.515625 C 378.992188 413.21875 376.765625 404.917969 369.878906 400.457031 C 352.46875 389.179688 333.425781 398.074219 317.070312 406.484375 C 313.703125 408.214844 310.207031 410.390625 306.605469 411.585938 C 305.660156 411.894531 304.488281 412.273438 304.160156 412.378906 C 303.203125 412.691406 302.234375 412.980469 301.257812 413.230469 C 300.589844 413.402344 299.917969 413.554688 299.242188 413.6875 C 297.609375 413.972656 297.902344 413.957031 300.128906 413.648438 C 299.441406 414.320312 296.066406 413.921875 295.148438 413.914062 C 294.238281 413.902344 293.332031 413.824219 292.421875 413.777344 C 290.742188 413.398438 289.074219 413.074219 287.425781 412.566406 C 286.488281 412.277344 285.578125 411.929688 284.652344 411.605469 C 284.585938 411.570312 284.519531 411.535156 284.441406 411.492188 C 281.738281 410.070312 277.746094 408.539062 275.414062 406.269531 C 275.125 405.9375 274.777344 405.554688 274.523438 405.34375 C 273.71875 404.660156 272.921875 403.960938 272.148438 403.242188 C 270.578125 401.792969 269.074219 400.277344 267.632812 398.703125 C 266.371094 397.328125 265.183594 395.890625 264 394.449219 C 263.941406 394.359375 263.878906 394.261719 263.800781 394.148438 C 263.195312 393.253906 262.550781 392.386719 261.949219 391.488281 C 259.570312 387.933594 257.445312 384.199219 255.609375 380.332031 C 255.582031 380.28125 255.460938 380.03125 255.3125 379.730469 C 255.855469 380.792969 254.535156 377.910156 254.476562 377.761719 C 253.59375 375.519531 252.769531 373.25 251.992188 370.96875 C 250.496094 366.582031 249.175781 362.136719 247.929688 357.671875 C 245.492188 348.925781 243.371094 340.09375 240.855469 331.367188 C 235.648438 313.277344 228.632812 295.222656 215.554688 281.308594 C 204.679688 269.742188 189.597656 260.421875 173.734375 258.050781 C 155.878906 255.382812 137.613281 260.738281 126.078125 275.253906 C 115.476562 288.601562 112.125 305.476562 113.027344 322.25 C 113.972656 339.800781 118.6875 356.585938 123.320312 373.429688 C 128.84375 393.519531 134.371094 413.609375 139.894531 433.703125 C 149.917969 470.144531 158.171875 509.710938 184.089844 538.726562 C 205.953125 563.203125 240.519531 576.296875 273.085938 574.265625 C 290.195312 573.199219 306.53125 568.390625 321.394531 559.816406 C 336.164062 551.296875 349.054688 539.816406 361.964844 528.789062 C 364.910156 526.273438 367.867188 523.769531 370.867188 521.320312 C 372.222656 520.210938 373.597656 519.121094 374.964844 518.027344 C 375.039062 517.964844 375.105469 517.914062 375.171875 517.859375 C 375.214844 517.824219 375.261719 517.796875 375.3125 517.757812 C 376.429688 516.925781 377.539062 516.085938 378.667969 515.269531 C 384.824219 510.820312 391.285156 506.769531 398.164062 503.535156 C 398.394531 503.429688 398.890625 503.175781 399.320312 502.949219 C 399.996094 502.675781 400.695312 502.441406 401.363281 502.191406 C 403.210938 501.5 405.089844 500.875 406.984375 500.316406 C 411.421875 499.003906 415.9375 498.085938 420.5 497.347656 C 420.519531 497.351562 422.710938 497.039062 423.066406 496.996094 C 424.125 496.878906 425.183594 496.769531 426.246094 496.671875 C 428.585938 496.449219 430.929688 496.269531 433.277344 496.113281 C 438.417969 495.773438 443.566406 495.558594 448.714844 495.304688 C 468.316406 494.332031 487.898438 492.652344 505.535156 483.355469 C 521.378906 475.003906 535.636719 460.871094 540.78125 443.363281 C 543.316406 434.742188 543.238281 425.375 540.695312 416.769531 C 538.949219 410.851562 533.019531 405.664062 526.5625 406.007812 C 523.917969 406.144531 521.332031 406.027344 518.699219 405.898438 C 518.675781 405.898438 518.65625 405.898438 518.632812 405.898438 C 518.339844 405.855469 518.042969 405.820312 517.761719 405.769531 C 516.167969 405.476562 514.585938 405.113281 513.019531 404.6875 C 511.769531 404.34375 510.527344 403.953125 509.300781 403.527344 C 508.6875 403.316406 508.082031 403.082031 507.472656 402.855469 C 506.898438 402.644531 506.679688 402.601562 506.675781 402.640625 C 505.890625 402.210938 505.0625 401.679688 504.753906 401.519531 C 503.449219 400.839844 502.167969 400.113281 500.917969 399.34375 C 499.800781 398.660156 498.707031 397.945312 497.632812 397.191406 C 497.40625 397.035156 497.183594 396.875 496.960938 396.710938 C 496.257812 395.808594 494.890625 395.03125 494.050781 394.273438 C 492.832031 393.171875 491.652344 392.023438 490.511719 390.839844 C 489.601562 389.886719 488.71875 388.914062 487.863281 387.910156 C 487.546875 387.542969 487.09375 386.808594 486.714844 386.480469 C 485.234375 384.375 483.820312 382.238281 482.566406 379.984375 C 481.929688 378.84375 481.324219 377.683594 480.757812 376.503906 C 480.582031 376.140625 480.414062 375.773438 480.25 375.40625 C 479.363281 372.820312 478.453125 370.28125 477.828125 367.613281 C 477.589844 366.59375 477.398438 365.570312 477.207031 364.542969 C 477.203125 364.019531 477.050781 363.351562 477.015625 362.855469 C 476.804688 359.910156 476.890625 356.992188 477.105469 354.046875 C 477.117188 353.921875 477.121094 353.777344 477.121094 353.632812 C 477.214844 353.132812 477.339844 352.632812 477.410156 352.230469 C 477.714844 350.558594 478.066406 348.894531 478.414062 347.226562 C 479.242188 343.253906 480 339.304688 480.539062 335.28125 C 481.558594 327.695312 481.523438 319.792969 478.601562 312.585938 C 468.214844 286.960938 437.835938 279.699219 413.003906 285.859375 C 399.839844 289.125 387.785156 295.5625 375.027344 300.011719 C 371.941406 301.089844 368.816406 302.050781 365.636719 302.816406 C 364.191406 303.164062 362.734375 303.472656 361.269531 303.734375 C 361.886719 303.585938 359.746094 303.972656 359.3125 304.011719 C 356.511719 304.277344 353.6875 304.390625 350.871094 304.339844 C 349.46875 304.316406 348.0625 304.253906 346.660156 304.152344 C 345.960938 304.105469 345.261719 304.042969 344.5625 303.976562 C 344.035156 303.925781 343.511719 303.871094 342.988281 303.804688 C 341.863281 303.671875 342.289062 303.726562 344.273438 303.980469 C 341.976562 304.371094 338.230469 302.871094 335.984375 302.300781 C 333.238281 301.605469 330.523438 300.773438 327.851562 299.820312 C 326.574219 299.363281 325.027344 298.992188 323.863281 298.296875 C 327.03125 300.179688 323.433594 298.074219 322.460938 297.617188 C 319.539062 296.230469 316.683594 294.707031 313.90625 293.054688 C 311.421875 291.578125 309.003906 290 306.652344 288.328125 C 305.855469 287.761719 302.242188 285.40625 305.277344 287.371094 C 303.941406 286.503906 302.710938 285.300781 301.507812 284.261719 C 296.992188 280.371094 292.789062 276.121094 288.964844 271.550781 C 288.503906 271 288.054688 270.441406 287.597656 269.886719 C 285.726562 267.625 287.769531 270.265625 287.902344 270.304688 C 287.078125 270.0625 285.6875 267.277344 285.195312 266.574219 C 283.183594 263.6875 281.289062 260.714844 279.507812 257.679688 C 277.929688 254.984375 276.449219 252.234375 275.054688 249.441406 C 274.445312 248.222656 273.855469 246.988281 273.277344 245.75 C 272.949219 245.042969 272.621094 244.332031 272.304688 243.617188 C 271.804688 242.5 271.457031 241.867188 271.769531 242.550781 C 266.359375 231.097656 263.421875 217.808594 261.042969 205.476562 C 260.4375 202.363281 259.902344 199.242188 259.417969 196.109375 C 259.292969 195.328125 259.179688 194.542969 259.0625 193.761719 C 259.042969 193.609375 258.992188 193.265625 258.941406 192.925781 C 258.882812 192.496094 258.816406 191.96875 258.789062 191.769531 C 258.667969 190.785156 258.546875 189.804688 258.4375 188.820312 C 257.6875 182.308594 257.226562 175.777344 256.710938 169.246094 C 255.613281 155.382812 253.925781 141.359375 247.171875 128.957031 C 240.636719 116.957031 229.25 108.308594 216.25 104.410156 C 203.960938 100.726562 190.839844 101.46875 178.378906 103.734375 C 165.761719 106.027344 153.9375 110.816406 142.230469 115.914062 C 129.894531 121.28125 117.886719 127.398438 106.292969 134.210938 C 82.773438 148.039062 60.730469 164.742188 41.042969 183.648438 C 30.699219 193.582031 21.03125 204.585938 16.386719 218.402344 C 11.300781 233.515625 15.441406 248.976562 20.558594 263.417969 C 22.550781 269.054688 24.464844 274.695312 25.832031 280.519531 C 26.410156 282.96875 26.914062 285.433594 27.339844 287.910156 C 27.519531 288.9375 27.457031 290.621094 27.898438 291.5625 C 27.949219 292 28 292.4375 28.046875 292.875 C 29.164062 303.464844 29.085938 314.152344 28.246094 324.757812 C 28.039062 327.335938 27.789062 329.914062 27.5 332.484375 C 27.390625 333.449219 27.273438 334.414062 27.15625 335.382812 C 27.160156 335.378906 27.164062 335.375 27.171875 335.371094 C 27.167969 335.375 27.160156 335.382812 27.15625 335.386719 C 27.113281 335.710938 27.074219 336.035156 27.035156 336.359375 C 26.941406 337.121094 26.890625 337.273438 26.878906 337.128906 C 26.855469 337.460938 26.835938 337.726562 26.824219 337.800781 C 26.035156 343.183594 25.101562 348.542969 24.066406 353.878906 C 21.976562 364.699219 19.484375 375.429688 16.917969 386.144531 C 11.835938 407.335938 6.34375 428.507812 3.246094 450.109375 C 0.0976562 472.050781 -0.996094 494.214844 4.238281 515.960938 C 9.863281 539.351562 23.28125 560.175781 41.5 575.761719 C 63.375 594.472656 89.390625 608.214844 113.921875 623.046875 C 140.234375 638.953125 166.550781 654.863281 192.867188 670.769531 C 205.714844 678.535156 218.441406 686.558594 231.511719 693.949219 C 243.9375 700.976562 257.34375 707.5 271.484375 710.101562 C 285.734375 712.71875 300.347656 712.027344 314.03125 707.03125 C 327.1875 702.226562 338.582031 694.921875 349.5625 686.347656 C 359.320312 678.722656 368.285156 670.160156 377.203125 661.582031 C 387.4375 651.730469 397.859375 642.085938 408.601562 632.789062 C 413.984375 628.128906 419.4375 623.546875 424.953125 619.046875 C 427.628906 616.863281 430.320312 614.703125 433.023438 612.558594 C 434.378906 611.488281 435.734375 610.417969 437.09375 609.355469 C 437.546875 609.007812 437.996094 608.65625 438.449219 608.304688 C 438.660156 608.144531 439.285156 607.65625 439.761719 607.292969 C 451.242188 598.507812 462.972656 590.050781 474.957031 581.96875 C 480.648438 578.132812 486.453125 574.453125 492.484375 571.167969 C 495.234375 569.671875 498.03125 568.25 500.882812 566.949219 C 501.265625 566.777344 501.644531 566.605469 502.023438 566.4375 C 502.320312 566.320312 502.847656 566.101562 503.09375 566.011719 C 505.011719 565.308594 506.921875 564.59375 508.875 563.988281 C 511.953125 563.027344 515.070312 562.320312 518.234375 561.714844 C 518.378906 561.6875 518.539062 561.648438 518.703125 561.601562 C 519.242188 561.550781 519.835938 561.554688 520.230469 561.523438 C 521.996094 561.402344 523.773438 561.363281 525.542969 561.414062 C 526.332031 561.4375 527.117188 561.476562 527.90625 561.535156 C 528.089844 561.546875 528.539062 561.601562 528.945312 561.644531 C 529.328125 561.710938 529.742188 561.785156 529.910156 561.816406 C 530.699219 561.972656 531.480469 562.152344 532.261719 562.347656 C 533.570312 562.679688 534.859375 563.0625 536.132812 563.5 C 536.585938 563.65625 537.035156 563.847656 537.488281 564.003906 C 539.386719 564.941406 541.25 565.902344 543.050781 567.035156 C 544.003906 567.632812 544.941406 568.265625 545.859375 568.921875 C 546.289062 569.226562 546.757812 569.660156 547.226562 569.925781 C 547.082031 569.84375 546.949219 569.769531 546.828125 569.699219 C 546.855469 569.71875 546.882812 569.738281 546.90625 569.761719 C 550.425781 572.742188 553.628906 576.082031 556.617188 579.589844 C 557.378906 580.488281 558.132812 581.394531 558.871094 582.3125 C 558.917969 582.375 558.96875 582.441406 559.023438 582.519531 C 559.117188 582.613281 559.222656 582.730469 559.324219 582.867188 C 559.507812 583.113281 559.6875 583.359375 559.871094 583.605469 C 559.90625 583.640625 559.941406 583.675781 559.980469 583.710938 C 559.949219 583.683594 559.921875 583.660156 559.894531 583.632812 C 561.320312 585.558594 562.738281 587.492188 564.113281 589.453125 C 567.023438 593.582031 569.839844 597.78125 572.707031 601.941406 C 585.730469 620.859375 599.960938 638.386719 621.960938 646.917969 C 642.234375 654.78125 664.765625 651.398438 684.222656 643.015625 C 703.929688 634.519531 720.917969 619.222656 732.328125 601.132812 C 744.605469 581.65625 748.984375 558.375 746.195312 535.632812 Z M 272.296875 30.535156 C 272.40625 30.554688 272.515625 30.574219 272.625 30.589844 C 271.730469 30.476562 270.152344 30.167969 272.296875 30.535156 Z M 515.417969 230.414062 C 515.769531 230.8125 516.015625 231.15625 516.011719 231.320312 C 515.980469 231.179688 515.679688 230.75 515.417969 230.414062 Z M 571.753906 349.75 C 571.613281 349.578125 571.472656 349.414062 571.332031 349.242188 C 569.9375 347.550781 571.265625 349.082031 571.753906 349.75 Z M 571.917969 349.996094 C 571.917969 350.007812 571.921875 350.015625 571.921875 350.019531 C 571.921875 350.015625 571.917969 350.003906 571.917969 349.996094 Z M 658.332031 446.523438 C 658.558594 446.632812 658.820312 446.828125 659.078125 447.050781 C 658.800781 446.839844 658.488281 446.613281 658.332031 446.523438 Z M 142.8125 328.527344 C 142.894531 329.105469 143.042969 330.113281 143.066406 330.125 C 142.9375 330.058594 142.859375 329.277344 142.8125 328.527344 Z M 500.179688 452.097656 C 499.847656 452.40625 499.476562 452.730469 499.207031 452.839844 C 499.53125 452.589844 499.855469 452.34375 500.179688 452.097656 Z M 511.996094 437.410156 C 512.101562 437.160156 512.226562 436.855469 512.378906 436.492188 C 512.417969 436.519531 512.253906 436.890625 511.996094 437.410156 Z M 519.703125 406.074219 C 519.6875 406.070312 519.667969 406.070312 519.652344 406.066406 C 519.671875 406.070312 519.6875 406.074219 519.703125 406.074219 Z M 508.171875 403.226562 C 508.160156 403.226562 508.148438 403.226562 508.136719 403.222656 C 508.148438 403.222656 508.160156 403.226562 508.171875 403.226562 Z M 487.101562 387.011719 C 487.003906 386.871094 486.902344 386.726562 486.804688 386.589844 C 487.308594 387.199219 488.390625 388.828125 487.101562 387.011719 Z M 486.648438 386.410156 C 486.636719 386.40625 486.628906 386.394531 486.617188 386.386719 C 486.625 386.390625 486.636719 386.402344 486.648438 386.410156 Z M 477.082031 363.800781 C 477.082031 363.796875 477.078125 363.796875 477.078125 363.789062 C 476.757812 362.089844 476.9375 362.941406 477.082031 363.800781 Z M 434.335938 313.128906 C 434.523438 313.144531 434.710938 313.160156 434.898438 313.175781 C 437.480469 313.359375 435.195312 313.578125 434.335938 313.128906 Z M 434.308594 313.113281 C 434.269531 313.09375 434.234375 313.074219 434.203125 313.046875 C 434.234375 313.074219 434.269531 313.09375 434.308594 313.113281 Z M 215.328125 136.015625 C 215.355469 136.03125 215.382812 136.046875 215.410156 136.0625 C 217.144531 137.144531 216.109375 136.828125 215.328125 136.015625 Z M 215.171875 135.835938 C 215.136719 135.796875 215.105469 135.753906 215.074219 135.714844 C 215.105469 135.753906 215.136719 135.792969 215.171875 135.835938 Z M 188.121094 131.59375 C 187.730469 131.65625 187.375 131.722656 187.324219 131.753906 C 187.460938 131.671875 187.777344 131.621094 188.121094 131.59375 Z M 45.09375 224.867188 C 44.964844 225.222656 44.847656 225.546875 44.847656 225.546875 C 44.8125 225.484375 44.921875 225.214844 45.09375 224.867188 Z M 27.78125 290.539062 C 27.8125 290.84375 27.847656 291.152344 27.886719 291.457031 C 27.75 290.730469 27.519531 288.214844 27.78125 290.539062 Z M 280.527344 682.125 C 280.742188 682.140625 280.933594 682.152344 281.03125 682.144531 C 280.898438 682.160156 280.722656 682.152344 280.527344 682.125 Z M 620.40625 613.109375 C 620.21875 612.976562 620.03125 612.84375 619.84375 612.710938 C 618.179688 611.53125 619.722656 612.570312 620.40625 613.109375 Z M 703.292969 591.765625 C 703.195312 591.898438 703.097656 592.03125 703 592.164062 C 701.914062 593.679688 702.738281 592.492188 703.292969 591.765625 Z M 703.292969 591.765625 " fill-opacity="1" fill-rule="nonzero"></path></g><path fill="#f6f4f0" d="M 546.824219 569.699219 C 545.882812 568.9375 544.21875 568.183594 546.824219 569.699219 Z M 546.824219 569.699219 " fill-opacity="1" fill-rule="nonzero"></path><path fill="#f6f4f0" d="M 31.671875 458.03125 C 31.925781 457.089844 31.835938 457.375 31.671875 458.03125 Z M 31.671875 458.03125 " fill-opacity="1" fill-rule="nonzero"></path><path fill="#f6f4f0" d="M 215.738281 528.089844 C 215.847656 528.160156 215.863281 528.171875 215.738281 528.089844 Z M 215.738281 528.089844 " fill-opacity="1" fill-rule="nonzero"></path><path fill="#f6f4f0" d="M 341.492188 101.050781 C 341.390625 100.660156 341.390625 101.363281 341.675781 102.316406 C 341.675781 102.304688 341.671875 102.292969 341.671875 102.285156 C 341.582031 101.90625 341.539062 101.46875 341.492188 101.050781 Z M 341.492188 101.050781 " fill-opacity="1" fill-rule="nonzero"></path><path fill="#f6f4f0" d="M 561.851562 332.785156 C 561.777344 332.25 561.78125 332.417969 561.851562 332.785156 Z M 561.851562 332.785156 " fill-opacity="1" fill-rule="nonzero"></path><path fill="#f6f4f0" d="M 687.613281 607.300781 C 687.710938 607.214844 687.8125 607.128906 687.921875 607.046875 C 688.832031 606.246094 689.367188 605.3125 687.527344 607.363281 C 687.53125 607.363281 687.535156 607.359375 687.539062 607.355469 C 687.566406 607.335938 687.589844 607.320312 687.613281 607.300781 Z M 687.613281 607.300781 " fill-opacity="1" fill-rule="nonzero"></path><path fill="#f6f4f0" d="M 27.152344 335.390625 C 27.152344 335.386719 27.152344 335.386719 27.152344 335.386719 C 26.964844 335.527344 26.855469 336.863281 26.875 337.132812 C 26.929688 336.457031 27.019531 335.511719 27.152344 335.390625 Z M 27.152344 335.390625 " fill-opacity="1" fill-rule="nonzero"></path><path fill="#f6f4f0" d="M 559.023438 582.519531 C 558.445312 581.929688 558.144531 582.128906 559.886719 583.632812 C 559.878906 583.625 559.875 583.613281 559.867188 583.605469 C 559.570312 583.3125 559.273438 582.859375 559.023438 582.519531 Z M 559.023438 582.519531 " fill-opacity="1" fill-rule="nonzero"></path><path fill="#f6f4f0" d="M 255.964844 544.515625 C 253.109375 543.765625 254.292969 544.164062 255.429688 544.410156 C 255.585938 544.4375 255.738281 544.46875 255.890625 544.503906 C 255.917969 544.507812 255.941406 544.511719 255.964844 544.515625 Z M 255.964844 544.515625 " fill-opacity="1" fill-rule="nonzero"></path><path fill="#f6f4f0" d="M 352.789062 424.511719 C 352.9375 424.59375 353.152344 424.671875 353.367188 424.746094 C 353.289062 424.699219 353.210938 424.652344 353.140625 424.609375 C 353.035156 424.582031 352.917969 424.546875 352.789062 424.511719 Z M 352.789062 424.511719 " fill-opacity="1" fill-rule="nonzero"></path><path fill="#f6f4f0" d="M 424.742188 313.285156 C 424.6875 313.300781 424.632812 313.308594 424.574219 313.320312 C 425.753906 313.574219 426.5625 313.210938 426.367188 313.085938 C 426.300781 313.089844 426.234375 313.09375 426.164062 313.097656 C 425.9375 313.113281 425.234375 313.257812 424.742188 313.285156 Z M 424.742188 313.285156 " fill-opacity="1" fill-rule="nonzero"></path><path fill="#f6f4f0" d="M 449.207031 319.660156 C 449.230469 319.859375 449.5 320.308594 450.171875 320.804688 C 450.15625 320.773438 450.136719 320.738281 450.117188 320.707031 C 449.804688 320.410156 449.5 320.03125 449.207031 319.660156 Z M 449.207031 319.660156 " fill-opacity="1" fill-rule="nonzero"></path><path fill="#f6f4f0" d="M 442.167969 315.019531 C 442.789062 315.566406 443.335938 315.761719 443.582031 315.765625 C 443.066406 315.542969 442.574219 315.304688 442.207031 315.03125 C 442.195312 315.027344 442.183594 315.023438 442.167969 315.019531 Z M 442.167969 315.019531 " fill-opacity="1" fill-rule="nonzero"></path></g></g></g></svg>