<svg xmlns="http://www.w3.org/2000/svg" xmlns:xlink="http://www.w3.org/1999/xlink" width="1000" zoomAndPan="magnify" viewBox="0 0 750 749.999995" height="1000" preserveAspectRatio="xMidYMid meet" version="1.0"><defs><filter x="0%" y="0%" width="100%" height="100%" id="7232ac37f7"><feColorMatrix values="0 0 0 0 1 0 0 0 0 1 0 0 0 0 1 0 0 0 1 0" color-interpolation-filters="sRGB"></feColorMatrix></filter><mask id="adc6506d38"><g filter="url(#7232ac37f7)"><rect x="-75" width="900" fill="#000000" y="-74.999999" height="899.999994" fill-opacity="0.23"></rect></g></mask><clipPath id="ef55216e0e"><path d="M 0.71875 0.199219 L 737.28125 0.199219 L 737.28125 638.839844 L 0.71875 638.839844 Z M 0.71875 0.199219 " clip-rule="nonzero"></path></clipPath><clipPath id="63dade6717"><rect x="0" width="738" y="0" height="639"></rect></clipPath></defs><g mask="url(#adc6506d38)"><g transform="matrix(1, 0, 0, 1, 0, 1)"><g clip-path="url(#63dade6717)"><path fill="#f6f4f0" d="M 449.035156 222.867188 C 442.75 214.160156 434.023438 207.257812 423.257812 205.097656 C 411.914062 202.824219 400.535156 204.554688 389.695312 208.292969 C 380.292969 211.539062 371.109375 215.519531 361.871094 219.195312 C 352.324219 222.996094 342.777344 226.792969 333.230469 230.59375 C 311.921875 239.074219 290.613281 247.554688 269.304688 256.035156 C 267.980469 256.394531 266.675781 256.917969 265.421875 257.671875 C 256.605469 262.96875 248.734375 270 243.664062 279.050781 C 239.660156 286.199219 237.429688 294.144531 234.851562 301.863281 C 233.582031 305.660156 231.992188 309.3125 230.601562 313.066406 C 228.449219 318.871094 227.4375 324.917969 226.742188 331.054688 C 226.050781 337.175781 226.511719 343.054688 227.402344 349.136719 C 228.160156 354.320312 229.636719 359.855469 232.605469 364.222656 C 238.785156 373.304688 248.523438 377.984375 259.1875 379.464844 C 269.925781 380.957031 281.1875 382.265625 291.691406 378.757812 C 302.664062 375.089844 311.878906 368.492188 321.472656 362.257812 C 330.398438 356.453125 339.484375 350.886719 348.710938 345.578125 C 368.875 333.976562 389.726562 323.597656 411.117188 314.453125 C 419.527344 311.011719 428.453125 307.976562 435.824219 302.605469 C 441.339844 298.582031 445.714844 294.398438 449.476562 288.621094 C 452.390625 284.148438 454.484375 278.929688 455.9375 273.808594 C 458.210938 265.777344 459.101562 257.101562 458.054688 248.804688 C 456.898438 239.636719 454.542969 230.492188 449.035156 222.867188 Z M 308.066406 332.707031 C 300.265625 337.71875 292.707031 343.425781 284.273438 347.371094 C 282.53125 348 280.765625 348.515625 278.953125 348.894531 C 274.773438 349.148438 270.40625 348.757812 266.210938 348.257812 C 264.09375 347.921875 261.996094 347.472656 259.957031 346.816406 C 259.855469 346.761719 259.746094 346.71875 259.644531 346.660156 C 259.277344 345.414062 258.988281 344.140625 258.75 342.859375 C 258.414062 339.234375 258.441406 335.601562 258.796875 331.976562 C 259.34375 328.878906 260.105469 325.824219 261.132812 322.847656 C 262.292969 319.488281 263.785156 316.257812 264.96875 312.902344 C 266.722656 307.929688 268.15625 302.84375 270.050781 297.925781 C 270.992188 295.960938 272.066406 294.078125 273.292969 292.277344 C 274.597656 290.792969 276.007812 289.414062 277.507812 288.128906 C 278.726562 287.261719 279.96875 286.433594 281.246094 285.652344 C 315.304688 272.097656 349.363281 258.542969 383.425781 244.984375 C 392 241.574219 400.609375 237.828125 409.742188 236.199219 C 411.484375 236.066406 413.222656 236.050781 414.964844 236.152344 C 415.925781 236.355469 416.867188 236.609375 417.800781 236.910156 C 418.539062 237.292969 419.261719 237.710938 419.964844 238.160156 C 420.765625 238.886719 421.527344 239.664062 422.242188 240.476562 C 422.980469 241.605469 423.652344 242.773438 424.253906 243.984375 C 425.070312 246.25 425.691406 248.574219 426.136719 250.945312 C 426.40625 253.984375 426.40625 257.035156 426.136719 260.078125 C 425.601562 263.023438 424.824219 265.917969 423.796875 268.730469 C 423.105469 270.121094 422.339844 271.460938 421.480469 272.753906 C 420.683594 273.636719 419.839844 274.464844 418.953125 275.261719 C 414.941406 278.035156 410.535156 280.144531 406.046875 282.042969 C 407.328125 281.503906 408.605469 280.964844 409.882812 280.425781 C 391.871094 287.992188 374.015625 295.738281 356.632812 304.683594 C 340.015625 313.25 323.796875 322.601562 308.066406 332.707031 Z M 308.066406 332.707031 " fill-opacity="1" fill-rule="nonzero"></path><path fill="#f6f4f0" d="M 516.808594 160.558594 C 510.15625 154.570312 502.722656 149.449219 494.515625 145.859375 C 489.390625 143.617188 484.234375 141.59375 478.804688 140.234375 C 473.480469 138.90625 468.007812 138.148438 462.558594 137.574219 C 453.777344 136.65625 444.898438 136.972656 436.144531 138.054688 C 425.789062 139.332031 415.609375 141.238281 405.53125 143.9375 C 387.433594 148.792969 369.769531 155.371094 352.195312 161.828125 C 316.671875 174.882812 281.75 189.636719 248.039062 206.871094 C 239.648438 211.160156 231.332031 215.59375 223.078125 220.140625 C 191.328125 237.371094 169.992188 268.207031 157.929688 301.574219 C 151.542969 319.234375 147.949219 338.003906 144.785156 356.46875 C 142.832031 367.871094 141.238281 379.339844 139.949219 390.835938 C 138.996094 399.355469 138.144531 407.949219 138.761719 416.527344 C 139.519531 427.066406 141.789062 437.9375 147.726562 446.882812 C 152.910156 454.695312 159.976562 461.402344 168.621094 465.203125 C 177.308594 469.027344 186.363281 470.882812 195.894531 470.796875 C 204.667969 470.71875 213.5625 469.253906 222.058594 467.109375 C 239.386719 462.742188 255.816406 455.050781 272.324219 448.355469 C 291.828125 440.445312 311.335938 432.535156 330.839844 424.625 C 350.332031 416.71875 369.832031 408.839844 389.3125 400.902344 C 407.996094 393.289062 426.683594 385.550781 444.628906 376.289062 C 477.75 359.195312 508.34375 336.035156 528.515625 304.207031 C 547.367188 274.460938 554.785156 237.386719 543.632812 203.425781 C 538.351562 187.328125 529.484375 171.972656 516.808594 160.558594 Z M 516.285156 247.863281 C 515.015625 255.820312 512.789062 263.589844 509.816406 271.078125 C 505.714844 280.324219 500.503906 289.011719 494.457031 297.121094 C 486.128906 307.609375 476.503906 316.988281 466.003906 325.296875 C 444.304688 341.632812 419.714844 353.53125 394.804688 364.132812 C 368.910156 375.011719 342.773438 385.347656 316.746094 395.902344 C 289.699219 406.871094 262.691406 417.9375 235.609375 428.808594 C 225.273438 432.953125 214.566406 436.417969 203.546875 438.171875 C 198.867188 438.679688 194.164062 438.800781 189.476562 438.355469 C 187.242188 437.929688 185.050781 437.332031 182.902344 436.5625 C 181.535156 435.875 180.214844 435.109375 178.945312 434.253906 C 177.816406 433.257812 176.753906 432.195312 175.761719 431.070312 C 174.839844 429.710938 174.011719 428.304688 173.277344 426.835938 C 172.261719 424.03125 171.535156 421.140625 171.03125 418.195312 C 169.785156 405.257812 171.792969 392.015625 173.507812 379.234375 C 173.316406 380.65625 173.125 382.082031 172.933594 383.503906 C 174.972656 368.4375 177.644531 353.464844 180.976562 338.632812 C 183.644531 326.738281 186.804688 315.054688 191.375 303.75 C 195.941406 293.339844 201.566406 283.425781 208.371094 274.3125 C 213.734375 267.644531 219.738281 261.527344 226.390625 256.144531 C 230.496094 253.097656 234.792969 250.324219 239.292969 247.882812 C 264.679688 233.886719 290.726562 221.144531 317.402344 209.792969 C 332.261719 203.566406 347.28125 197.730469 362.414062 192.191406 C 378.574219 186.277344 394.804688 180.285156 411.394531 175.652344 C 419.882812 173.28125 428.496094 171.34375 437.222656 170.066406 C 445.722656 169.09375 454.292969 168.859375 462.804688 169.75 C 468.59375 170.671875 474.25 172.15625 479.714844 174.273438 C 483.882812 176.199219 487.847656 178.492188 491.578125 181.171875 C 495.3125 184.253906 498.71875 187.683594 501.800781 191.417969 C 505.433594 196.382812 508.488281 201.71875 510.992188 207.339844 C 513.429688 213.667969 515.175781 220.226562 516.242188 226.921875 C 517.003906 233.886719 517.03125 240.898438 516.285156 247.863281 Z M 516.285156 247.863281 " fill-opacity="1" fill-rule="nonzero"></path><path fill="#f6f4f0" d="M 222.257812 145.933594 C 222.910156 145.65625 223.289062 145.496094 222.257812 145.933594 Z M 222.257812 145.933594 " fill-opacity="1" fill-rule="nonzero"></path><path fill="#f6f4f0" d="M 565.367188 88.167969 C 512.828125 61.671875 451.363281 63.023438 395.410156 76.816406 C 339.601562 90.570312 288.046875 116.984375 235.746094 140.089844 C 232.804688 141.390625 229.851562 142.679688 226.894531 143.957031 C 225.410156 144.597656 223.925781 145.234375 222.441406 145.867188 C 221.84375 146.117188 221.246094 146.371094 220.648438 146.625 C 221.394531 146.308594 221.90625 146.089844 222.261719 145.9375 C 221.800781 146.132812 221.210938 146.382812 220.894531 146.515625 C 214.835938 149.042969 208.742188 151.496094 202.617188 153.859375 C 152.691406 170.753906 112.117188 208.925781 87.824219 255.257812 C 74.351562 280.941406 65.289062 308.863281 60.3125 337.398438 C 55.3125 366.046875 53.042969 395.765625 55.753906 424.777344 C 58.417969 453.273438 65.804688 482.25 82.875 505.714844 C 98.488281 527.171875 120.441406 544.964844 146.898438 550.621094 C 177.171875 557.09375 208.863281 549.378906 237.53125 539.421875 C 264.34375 530.109375 289.992188 517.773438 315.542969 505.507812 C 327.75 499.648438 339.964844 493.804688 352.347656 488.324219 C 353.855469 487.660156 355.367188 487 356.878906 486.34375 C 357.960938 485.875 363.210938 483.863281 358.5 485.636719 C 361.886719 484.359375 365.195312 482.859375 368.5625 481.535156 C 374.992188 479.003906 381.480469 476.621094 388.039062 474.445312 C 414.730469 465.59375 442.5625 460.558594 468.980469 450.832031 C 483.058594 445.652344 496.6875 439.339844 509.277344 431.160156 C 521.628906 423.132812 533.179688 413.78125 544.054688 403.867188 C 563.625 386.023438 582.167969 366.566406 599.214844 346.304688 C 617.265625 324.855469 633.167969 301.996094 643.875 275.980469 C 654.089844 251.152344 657.425781 224.152344 652.75 197.679688 C 644.332031 149.992188 607.691406 109.519531 565.367188 88.167969 Z M 143.121094 515.910156 C 143.640625 516.121094 144.109375 516.316406 144.09375 516.335938 C 144.074219 516.359375 143.554688 516.117188 143.121094 515.910156 Z M 251.742188 499.746094 C 251.773438 499.730469 251.859375 499.695312 251.972656 499.648438 C 251.894531 499.683594 251.816406 499.714844 251.742188 499.746094 Z M 505.566406 394.589844 C 505.402344 394.722656 505.238281 394.851562 505.074219 394.980469 C 503.695312 396.070312 504.804688 395.171875 505.566406 394.589844 Z M 622.117188 234.65625 C 620.957031 242.339844 619.152344 249.90625 616.691406 257.285156 C 616.023438 259.28125 615.316406 261.265625 614.566406 263.234375 C 614.191406 264.21875 613.804688 265.203125 613.410156 266.183594 C 613.351562 266.324219 613.308594 266.421875 613.269531 266.53125 C 611.566406 270.433594 609.714844 274.273438 607.734375 278.046875 C 603.71875 285.710938 599.1875 293.105469 594.316406 300.253906 C 591.847656 303.878906 589.285156 307.4375 586.65625 310.949219 C 586.0625 311.738281 585.414062 312.503906 584.851562 313.320312 C 584.753906 313.441406 584.660156 313.5625 584.5625 313.6875 C 583.199219 315.421875 581.816406 317.144531 580.421875 318.851562 C 569.140625 332.683594 556.921875 345.710938 544.484375 358.503906 C 537.996094 365.171875 531.425781 371.761719 524.628906 378.113281 C 521.234375 381.285156 517.785156 384.390625 514.265625 387.417969 C 512.507812 388.929688 510.734375 390.417969 508.941406 391.882812 C 508.046875 392.613281 507.144531 393.339844 506.238281 394.058594 C 506.074219 394.1875 505.910156 394.320312 505.746094 394.449219 C 498.085938 399.796875 490.667969 405.257812 482.46875 409.800781 C 478.339844 412.089844 474.109375 414.1875 469.804688 416.121094 C 469.074219 416.449219 468.335938 416.765625 467.597656 417.085938 C 467.269531 417.21875 466.941406 417.351562 466.613281 417.484375 C 464.253906 418.433594 461.875 419.339844 459.484375 420.207031 C 441.351562 426.796875 422.542969 431.222656 403.945312 436.242188 C 385.847656 441.132812 368.171875 447.046875 350.867188 454.277344 C 332.671875 461.882812 314.867188 470.308594 297.089844 478.84375 C 288.757812 482.84375 280.425781 486.835938 272.035156 490.714844 C 267.847656 492.648438 263.652344 494.554688 259.433594 496.414062 C 257.328125 497.34375 255.214844 498.261719 253.101562 499.164062 C 252.960938 499.222656 252.824219 499.285156 252.683594 499.34375 C 251.679688 499.761719 250.675781 500.175781 249.667969 500.59375 C 232.511719 507.621094 214.898438 513.679688 196.769531 517.679688 C 192.40625 518.640625 188.007812 519.4375 183.585938 520.089844 C 175.554688 520.996094 167.488281 521.210938 159.445312 520.371094 C 155.601562 519.738281 151.808594 518.878906 148.097656 517.691406 C 146.34375 517.128906 144.628906 516.480469 142.917969 515.816406 C 142.75 515.738281 142.617188 515.671875 142.566406 515.648438 C 141.550781 515.175781 140.546875 514.6875 139.554688 514.175781 C 135.691406 512.195312 131.984375 509.917969 128.457031 507.394531 C 128.132812 507.164062 127.804688 506.9375 127.472656 506.707031 C 127.425781 506.664062 127.390625 506.636719 127.335938 506.59375 C 127.011719 506.324219 126.679688 506.058594 126.355469 505.789062 C 124.613281 504.351562 122.921875 502.851562 121.28125 501.296875 C 118.1875 498.371094 115.277344 495.253906 112.558594 491.980469 C 111.921875 491.214844 111.316406 490.421875 110.679688 489.65625 C 111.230469 490.3125 111.605469 490.757812 111.855469 491.0625 C 111.457031 490.578125 110.886719 489.875 110.613281 489.5 C 109.359375 487.769531 108.148438 486.007812 106.992188 484.207031 C 104.679688 480.625 102.566406 476.917969 100.664062 473.101562 C 99.746094 471.257812 98.964844 469.335938 98.066406 467.488281 C 97.929688 467.148438 97.789062 466.8125 97.65625 466.46875 C 97.105469 465.050781 96.574219 463.625 96.066406 462.191406 C 92.5 452.101562 90.128906 441.644531 88.574219 431.066406 C 85.566406 406.402344 86.5 381.164062 89.632812 356.546875 C 91.929688 340.316406 95.378906 324.25 100.289062 308.601562 C 101.5 304.75 102.792969 300.929688 104.175781 297.136719 C 104.753906 295.558594 105.34375 293.984375 105.953125 292.417969 C 106.316406 291.480469 106.683594 290.539062 107.0625 289.605469 C 107.507812 288.492188 109.707031 284.660156 107.367188 288.785156 C 109.328125 285.332031 110.636719 281.355469 112.382812 277.773438 C 114.292969 273.835938 116.316406 269.953125 118.449219 266.132812 C 122.058594 259.667969 126.003906 253.394531 130.265625 247.34375 C 131.117188 246.136719 131.980469 244.941406 132.851562 243.753906 C 133.347656 243.078125 133.855469 242.410156 134.351562 241.738281 C 136.648438 238.847656 138.988281 235.992188 141.421875 233.21875 C 146.273438 227.683594 151.429688 222.410156 156.863281 217.449219 C 159.46875 215.074219 162.136719 212.769531 164.863281 210.539062 C 166 209.613281 167.179688 208.734375 168.308594 207.800781 C 168.125 207.949219 167.96875 208.078125 167.816406 208.207031 C 167.828125 208.199219 167.84375 208.1875 167.855469 208.179688 C 168.792969 207.476562 169.738281 206.785156 170.691406 206.101562 C 177.347656 201.324219 184.324219 197 191.585938 193.207031 C 194.433594 191.71875 197.367188 190.4375 200.269531 189.078125 C 200.3125 189.03125 201.46875 188.4375 202.082031 188.191406 C 202.15625 188.160156 202.238281 188.132812 202.3125 188.101562 C 202.433594 188.042969 202.554688 187.984375 202.675781 187.925781 C 202.558594 187.984375 202.472656 188.027344 202.367188 188.078125 C 203.359375 187.679688 204.351562 187.285156 205.351562 186.90625 C 207.277344 186.179688 209.210938 185.492188 211.15625 184.835938 C 211.6875 184.652344 212.210938 184.445312 212.71875 184.214844 C 241.589844 172.988281 269.617188 159.792969 297.835938 147.054688 C 304.804688 143.910156 311.785156 140.800781 318.796875 137.765625 C 320.664062 136.957031 322.535156 136.152344 324.40625 135.355469 C 324.40625 135.355469 324.410156 135.355469 324.410156 135.355469 C 324.386719 135.363281 324.371094 135.367188 324.347656 135.375 C 324.984375 135.175781 325.644531 134.832031 326.25 134.578125 C 330.265625 132.894531 334.292969 131.242188 338.335938 129.621094 C 353.609375 123.496094 369.058594 117.773438 384.824219 113.03125 C 401.777344 107.933594 419.058594 103.953125 436.582031 101.421875 C 457.199219 98.808594 478.054688 98.34375 498.699219 100.882812 C 512.070312 102.851562 525.304688 106.019531 537.9375 110.863281 C 539.0625 111.289062 540.171875 111.746094 541.285156 112.199219 C 541.925781 112.484375 542.566406 112.765625 543.203125 113.054688 C 546.082031 114.363281 548.921875 115.757812 551.722656 117.230469 C 557.207031 120.117188 562.527344 123.3125 567.65625 126.789062 C 570.117188 128.457031 572.734375 130.109375 574.980469 132.054688 C 574.5625 131.71875 571.894531 129.625 573.738281 131.097656 C 574.382812 131.613281 575.03125 132.125 575.675781 132.640625 C 576.953125 133.679688 578.21875 134.738281 579.46875 135.8125 C 584.234375 139.921875 588.757812 144.308594 592.996094 148.957031 C 594.828125 150.964844 596.605469 153.023438 598.328125 155.125 C 598.734375 155.621094 599.132812 156.125 599.53125 156.625 C 600.429688 157.832031 601.328125 159.042969 602.191406 160.277344 C 605.589844 165.113281 608.6875 170.160156 611.425781 175.398438 C 612.296875 177.054688 613.125 178.734375 613.921875 180.425781 C 614.539062 181.742188 616.582031 187.035156 614.566406 181.710938 C 615.699219 184.707031 616.898438 187.65625 617.890625 190.703125 C 619.824219 196.648438 621.234375 202.738281 622.183594 208.914062 C 623.113281 217.480469 623.058594 226.09375 622.117188 234.65625 Z M 622.117188 234.65625 " fill-opacity="1" fill-rule="nonzero"></path><path fill="#f6f4f0" d="M 111.855469 491.066406 C 112.304688 491.609375 112.523438 491.867188 111.855469 491.066406 Z M 111.855469 491.066406 " fill-opacity="1" fill-rule="nonzero"></path><path fill="#f6f4f0" d="M 167.808594 208.207031 C 166.960938 208.851562 164.839844 210.671875 167.808594 208.207031 Z M 167.808594 208.207031 " fill-opacity="1" fill-rule="nonzero"></path><path fill="#f6f4f0" d="M 202.363281 188.078125 C 202.34375 188.085938 202.328125 188.09375 202.308594 188.101562 C 201.628906 188.433594 200.949219 188.757812 200.265625 189.078125 C 200.234375 189.109375 200.757812 188.871094 202.363281 188.078125 Z M 202.363281 188.078125 " fill-opacity="1" fill-rule="nonzero"></path><path fill="#f6f4f0" d="M 324.40625 135.355469 C 328.582031 134.027344 325.371094 134.941406 324.40625 135.355469 Z M 324.40625 135.355469 " fill-opacity="1" fill-rule="nonzero"></path><g clip-path="url(#ef55216e0e)"><path fill="#f6f4f0" d="M 667.761719 68.535156 C 641.816406 44.839844 611.347656 27.117188 578.621094 14.566406 C 559.910156 7.390625 540.496094 2.460938 520.492188 0.777344 C 499.785156 -0.964844 479.035156 2.421875 458.8125 6.644531 C 422.460938 14.234375 386.054688 21.421875 349.621094 28.609375 C 313.984375 35.644531 278.34375 43.175781 243.605469 53.890625 C 228.453125 58.5625 213.617188 64.007812 199 70.109375 C 198.886719 70.152344 198.769531 70.171875 198.660156 70.214844 C 163.289062 83.84375 132.820312 105.652344 103.777344 129.648438 C 90.472656 140.644531 77.261719 151.835938 64.445312 163.40625 C 50.882812 175.644531 38.117188 188.933594 28.101562 204.296875 C 7.066406 236.566406 4.464844 275.671875 2.742188 313.054688 C 1.203125 346.492188 0.0117188 380.019531 1.816406 413.472656 C 5.421875 480.230469 21.714844 552.136719 71.40625 600.410156 C 96.078125 624.378906 129.628906 641.460938 164.796875 638.167969 C 199 634.960938 227.964844 616.722656 255.535156 597.589844 C 268.9375 588.289062 282.242188 578.785156 296.4375 570.710938 C 303.5 566.695312 310.75 563.003906 318.125 559.601562 C 319.804688 558.828125 321.484375 558.070312 323.175781 557.324219 C 324.179688 556.882812 329.59375 554.28125 325.449219 556.316406 C 329.390625 554.378906 333.71875 552.949219 337.824219 551.394531 C 368.222656 539.878906 399.796875 531.902344 431.136719 523.429688 C 463.28125 514.746094 495.210938 505.328125 525.628906 491.613281 C 540.351562 484.972656 554.589844 477.207031 567.867188 467.992188 C 583.835938 456.910156 598.445312 444.03125 612.277344 430.414062 C 636.683594 406.382812 660.90625 381.527344 682.132812 354.605469 C 703.695312 327.25 722.460938 297.226562 731.382812 263.214844 C 750.015625 192.171875 720.867188 117.035156 667.761719 68.535156 Z M 703.929688 237.5625 C 703.921875 237.609375 703.921875 237.636719 703.917969 237.683594 C 703.902344 237.773438 703.890625 237.835938 703.871094 237.941406 C 703.742188 238.714844 703.632812 239.488281 703.5 240.261719 C 703.191406 242.132812 702.84375 244 702.460938 245.863281 C 701.632812 249.921875 700.648438 253.953125 699.515625 257.941406 C 698.441406 261.726562 697.230469 265.472656 695.90625 269.175781 C 695.210938 271.113281 694.484375 273.035156 693.726562 274.945312 C 693.449219 275.636719 693.167969 276.328125 692.890625 277.019531 C 692.796875 277.222656 692.683594 277.472656 692.527344 277.839844 C 689.265625 285.222656 685.558594 292.410156 681.503906 299.390625 C 677.5 306.277344 673.167969 312.972656 668.585938 319.492188 C 666.386719 322.621094 664.132812 325.710938 661.828125 328.765625 C 661.300781 329.457031 660.773438 330.15625 660.242188 330.84375 C 660.199219 330.898438 660.160156 330.949219 660.125 330.992188 C 658.6875 332.800781 657.257812 334.617188 655.804688 336.410156 C 645.339844 349.3125 634.152344 361.605469 622.730469 373.660156 C 610.960938 386.078125 599.101562 398.449219 586.832031 410.375 C 580.453125 416.570312 573.921875 422.613281 567.125 428.351562 C 565.347656 429.851562 563.554688 431.332031 561.738281 432.789062 C 560.917969 433.449219 560.113281 434.152344 559.253906 434.761719 C 562.449219 432.492188 558.96875 434.964844 558.472656 435.335938 C 555.046875 437.90625 551.546875 440.378906 547.980469 442.753906 C 535.148438 451.296875 521.484375 458.542969 507.398438 464.78125 C 506.410156 465.214844 500.941406 467.738281 505.167969 465.777344 C 503.507812 466.546875 501.773438 467.1875 500.070312 467.871094 C 496.3125 469.382812 492.53125 470.832031 488.730469 472.230469 C 481.269531 474.976562 473.726562 477.515625 466.144531 479.917969 C 405.160156 499.214844 340.796875 509.808594 284.09375 540.820312 C 256.425781 555.949219 232.367188 576.777344 204.746094 591.988281 C 201.429688 593.816406 198.0625 595.550781 194.640625 597.167969 C 193.832031 597.550781 193.023438 597.925781 192.210938 598.292969 C 191.882812 598.4375 191.558594 598.585938 191.234375 598.730469 C 189.632812 599.425781 189.929688 599.308594 192.128906 598.378906 C 190.703125 599.425781 188.34375 599.902344 186.691406 600.507812 C 183.21875 601.78125 179.695312 602.902344 176.117188 603.835938 C 174.417969 604.28125 172.710938 604.683594 170.992188 605.039062 C 170.300781 605.179688 169.613281 605.316406 168.921875 605.445312 C 167.835938 605.644531 162.96875 606.117188 167.96875 605.691406 C 164.402344 605.996094 160.886719 606.394531 157.300781 606.433594 C 155.492188 606.453125 153.679688 606.414062 151.871094 606.324219 C 150.792969 606.265625 149.714844 606.191406 148.640625 606.09375 C 148.535156 606.082031 148.433594 606.074219 148.335938 606.0625 C 147.273438 605.808594 143.699219 605.328125 143.363281 605.261719 C 141.617188 604.90625 139.882812 604.496094 138.164062 604.039062 C 134.40625 603.042969 130.746094 601.769531 127.125 600.363281 C 127.050781 600.328125 126.996094 600.300781 126.90625 600.261719 C 126.257812 599.957031 125.605469 599.664062 124.957031 599.359375 C 123.335938 598.589844 121.734375 597.777344 120.15625 596.929688 C 116.492188 594.964844 112.941406 592.796875 109.503906 590.460938 C 108 589.4375 106.519531 588.382812 105.058594 587.296875 C 104.84375 587.136719 104.59375 586.988281 104.359375 586.859375 C 103.777344 586.390625 103.210938 585.828125 102.710938 585.414062 C 99.609375 582.839844 96.613281 580.136719 93.730469 577.316406 C 91.109375 574.75 88.582031 572.085938 86.144531 569.34375 C 84.929688 567.972656 83.738281 566.585938 82.570312 565.175781 C 81.984375 564.472656 81.410156 563.761719 80.839844 563.050781 C 80.644531 562.804688 80.496094 562.625 80.371094 562.46875 C 80.355469 562.449219 80.347656 562.4375 80.332031 562.417969 C 75.699219 556.113281 71.339844 549.636719 67.390625 542.871094 C 63.480469 536.167969 59.945312 529.246094 56.773438 522.164062 C 56.359375 521.246094 55.960938 520.320312 55.558594 519.398438 C 54.878906 517.6875 54.175781 515.980469 53.515625 514.261719 C 51.992188 510.304688 50.574219 506.304688 49.253906 502.273438 C 44.382812 487.417969 40.863281 472.136719 38.339844 456.714844 C 38.035156 454.859375 37.746094 453 37.472656 451.140625 C 37.304688 450.019531 37.152344 448.898438 36.988281 447.78125 C 36.933594 447.410156 36.816406 446.929688 36.730469 446.660156 C 36.15625 443.253906 36.019531 439.628906 35.683594 436.269531 C 34.863281 428.117188 34.269531 419.941406 33.855469 411.753906 C 33.027344 395.453125 32.902344 379.128906 33.164062 362.8125 C 33.429688 346.597656 34.074219 330.390625 34.816406 314.191406 C 35.222656 305.378906 35.628906 296.566406 36.320312 287.773438 C 36.644531 283.652344 37.027344 279.539062 37.507812 275.433594 C 37.605469 274.617188 37.710938 273.800781 37.808594 272.980469 C 37.816406 272.910156 37.820312 272.867188 37.828125 272.800781 C 37.847656 272.660156 37.871094 272.535156 37.898438 272.355469 C 38.285156 269.921875 38.652344 267.488281 39.097656 265.066406 C 40.640625 256.652344 42.742188 248.328125 45.675781 240.28125 C 46.089844 239.136719 46.546875 238.003906 46.980469 236.863281 C 47.054688 236.660156 47.152344 236.363281 47.238281 236.097656 C 47.855469 234.617188 48.660156 233.171875 49.363281 231.765625 C 51.304688 227.890625 53.480469 224.140625 55.84375 220.511719 C 57.019531 218.710938 58.238281 216.941406 59.503906 215.203125 C 59.96875 214.558594 60.425781 213.867188 60.933594 213.242188 C 61.058594 213.101562 61.175781 212.96875 61.261719 212.859375 C 64.085938 209.335938 67.066406 205.941406 70.152344 202.648438 C 75.832031 196.585938 81.867188 190.875 88.046875 185.328125 C 100.601562 174.058594 113.492188 163.109375 126.496094 152.367188 C 129.785156 149.648438 133.097656 146.953125 136.4375 144.296875 C 138.027344 143.03125 139.628906 141.785156 141.222656 140.523438 C 141.253906 140.496094 141.273438 140.484375 141.300781 140.460938 C 141.316406 140.449219 141.328125 140.441406 141.347656 140.429688 C 142.476562 139.566406 143.605469 138.707031 144.738281 137.851562 C 151.6875 132.628906 158.785156 127.59375 166.082031 122.867188 C 172.835938 118.492188 179.757812 114.367188 186.871094 110.601562 C 190.425781 108.71875 194.023438 106.925781 197.671875 105.230469 C 199.476562 104.394531 201.304688 103.417969 203.1875 102.765625 C 202.910156 102.859375 202.683594 102.9375 202.480469 103.011719 C 203.007812 102.824219 203.585938 102.617188 203.820312 102.523438 C 204.945312 102.070312 206.074219 101.628906 207.207031 101.195312 C 207.855469 100.945312 208.484375 100.652344 209.105469 100.335938 C 209.742188 100.105469 210.386719 99.859375 211.042969 99.578125 C 211.164062 99.527344 211.242188 99.492188 211.339844 99.449219 C 211.367188 99.4375 211.378906 99.433594 211.410156 99.421875 C 212.292969 99.058594 213.175781 98.691406 214.0625 98.332031 C 215.839844 97.609375 217.621094 96.902344 219.410156 96.207031 C 223.5625 94.589844 227.738281 93.039062 231.941406 91.546875 C 239.757812 88.777344 247.648438 86.214844 255.589844 83.820312 C 271.976562 78.875 288.570312 74.632812 305.246094 70.769531 C 340.136719 62.699219 375.386719 56.308594 410.523438 49.425781 C 428.628906 45.878906 446.65625 42.015625 464.703125 38.179688 C 469.132812 37.238281 473.566406 36.328125 478.015625 35.507812 C 480.238281 35.097656 482.460938 34.710938 484.695312 34.351562 C 485.808594 34.171875 486.921875 34 488.039062 33.835938 C 488.296875 33.796875 488.554688 33.761719 488.8125 33.726562 C 489.035156 33.699219 489.359375 33.65625 489.800781 33.601562 C 499.167969 32.628906 508.480469 32.085938 517.894531 32.707031 C 520.070312 32.851562 522.238281 33.046875 524.402344 33.285156 C 525.28125 33.378906 529.265625 33.265625 525.3125 33.371094 C 526.085938 33.351562 527.105469 33.640625 527.894531 33.769531 C 532.632812 34.53125 537.335938 35.496094 541.992188 36.636719 C 551.121094 38.867188 560.082031 41.757812 568.867188 45.082031 C 570.886719 45.847656 572.894531 46.632812 574.898438 47.441406 C 575.59375 47.722656 576.289062 48.011719 576.988281 48.292969 C 577 48.300781 577.007812 48.304688 577.019531 48.308594 C 577.117188 48.351562 577.191406 48.386719 577.308594 48.4375 C 581.101562 50.101562 584.871094 51.808594 588.601562 53.625 C 595.710938 57.089844 602.675781 60.855469 609.457031 64.933594 C 616.226562 69.003906 622.808594 73.386719 629.167969 78.070312 C 630.074219 78.738281 630.972656 79.417969 631.875 80.09375 C 633.832031 81.554688 632.273438 80.347656 631.566406 79.832031 C 633.164062 80.921875 634.648438 82.296875 636.136719 83.519531 C 639.316406 86.140625 642.433594 88.847656 645.472656 91.636719 C 651.40625 97.082031 657.050781 102.847656 662.351562 108.914062 C 664.757812 111.667969 667.527344 114.492188 669.519531 117.574219 C 667.078125 113.792969 670.53125 118.960938 671.082031 119.714844 C 672.460938 121.601562 673.804688 123.511719 675.113281 125.441406 C 679.730469 132.269531 683.902344 139.394531 687.609375 146.757812 C 689.285156 150.089844 691.089844 153.503906 692.402344 157.003906 C 692.546875 157.402344 692.683594 157.777344 692.757812 157.957031 C 693.121094 158.871094 693.476562 159.785156 693.824219 160.699219 C 694.59375 162.71875 695.328125 164.746094 696.027344 166.785156 C 698.8125 174.9375 701.039062 183.28125 702.636719 191.746094 C 703 193.664062 703.335938 195.585938 703.632812 197.519531 C 703.730469 198.160156 703.894531 198.917969 703.945312 199.601562 C 703.957031 199.847656 703.972656 200.066406 703.988281 200.210938 C 704.46875 204.472656 704.792969 208.753906 704.945312 213.039062 C 705.226562 221.25 704.796875 229.398438 703.929688 237.5625 Z M 703.929688 237.5625 " fill-opacity="1" fill-rule="nonzero"></path></g></g></g></g></svg>